HIERARCHY
ROOT Hips
{
	OFFSET	0.00	0.00	0.00
	CHANNELS 6 Xposition Yposition Zposition Zrotation Xrotation Yrotation
	JOINT LeftUpLeg
	{
		OFFSET	 0.126116	-0.014019	-0.065224
		CHANNELS 3 Zrotation Xrotation Yrotation
		JOINT LeftLeg
		{
			OFFSET	 0.000000	 0.000000	 0.569914
			CHANNELS 3 Zrotation Xrotation Yrotation
			JOINT LeftFoot
			{
				OFFSET	 0.000000	 0.000000	 0.544423
				CHANNELS 3 Zrotation Xrotation Yrotation
				JOINT LeftToeBase
				{
					OFFSET	 0.000000	 0.000000	 0.207117
					CHANNELS 3 Zrotation Xrotation Yrotation
					End Site
					{
						OFFSET	 0.000000	 0.000000	 0.207117
					}
				}
			}
		}
	}
	JOINT RightUpLeg
	{
		OFFSET	-0.124023	-0.008373	-0.065224
		CHANNELS 3 Zrotation Xrotation Yrotation
		JOINT RightLeg
		{
			OFFSET	 0.000000	 0.000000	 0.570047
			CHANNELS 3 Zrotation Xrotation Yrotation
			JOINT RightFoot
			{
				OFFSET	 0.000000	 0.000000	 0.544354
				CHANNELS 3 Zrotation Xrotation Yrotation
				JOINT RightToeBase
				{
					OFFSET	 0.000000	 0.000000	 0.207540
					CHANNELS 3 Zrotation Xrotation Yrotation
					End Site
					{
						OFFSET	 0.000000	 0.000000	 0.207540
					}
				}
			}
		}
	}
	JOINT Spine
	{
		OFFSET	 0.000184	-0.007763	 0.117403
		CHANNELS 3 Zrotation Xrotation Yrotation
		JOINT Spine1
		{
			OFFSET	 0.000000	 0.000000	 0.137269
			CHANNELS 3 Zrotation Xrotation Yrotation
			JOINT Spine2
			{
				OFFSET	 0.000000	 0.000000	 0.156879
				CHANNELS 3 Zrotation Xrotation Yrotation
				JOINT LeftShoulder
				{
					OFFSET	 0.080501	-0.002496	 0.160144
					CHANNELS 3 Zrotation Xrotation Yrotation
					JOINT LeftArm
					{
						OFFSET	 0.000000	 0.000000	 0.164363
						CHANNELS 3 Zrotation Xrotation Yrotation
						JOINT LeftForeArm
						{
							OFFSET	 0.000000	 0.000000	 0.364576
							CHANNELS 3 Zrotation Xrotation Yrotation
							JOINT LeftHand
							{
								OFFSET	 0.000000	 0.000000	 0.360812
								CHANNELS 3 Zrotation Xrotation Yrotation
								JOINT LeftHandIndex1
								{
									OFFSET	 0.000000	 0.000000	 0.086006
									CHANNELS 3 Zrotation Xrotation Yrotation
									JOINT LeftHandIndex2
									{
										OFFSET	 0.000000	 0.000000	 0.047236
										CHANNELS 3 Zrotation Xrotation Yrotation
										JOINT LeftHandIndex3
										{
											OFFSET	-0.004284	-0.000551	 0.038166
											CHANNELS 3 Zrotation Xrotation Yrotation
											End Site
											{
												OFFSET	-0.004284	-0.000551	 0.038166
											}
										}
									}
								}
							}
						}
					}
				}
				JOINT Neck
				{
					OFFSET	 0.000000	 0.000000	 0.176489
					CHANNELS 3 Zrotation Xrotation Yrotation
					JOINT Head
					{
						OFFSET	 0.000000	-0.001747	 0.077940
						CHANNELS 3 Zrotation Xrotation Yrotation
						End Site
						{
							OFFSET	 0.000000	-0.001747	 0.077940
						}
					}
				}
				JOINT RightShoulder
				{
					OFFSET	-0.080363	 0.000306	 0.159706
					CHANNELS 3 Zrotation Xrotation Yrotation
					JOINT RightArm
					{
						OFFSET	 0.000000	 0.000000	 0.164196
						CHANNELS 3 Zrotation Xrotation Yrotation
						JOINT RightForeArm
						{
							OFFSET	 0.000000	 0.000000	 0.365611
							CHANNELS 3 Zrotation Xrotation Yrotation
							JOINT RightHand
							{
								OFFSET	 0.000000	 0.000000	 0.360648
								CHANNELS 3 Zrotation Xrotation Yrotation
								JOINT RightHandIndex1
								{
									OFFSET	 0.000000	 0.000000	 0.069977
									CHANNELS 3 Zrotation Xrotation Yrotation
									JOINT RightHandIndex2
									{
										OFFSET	 0.000000	 0.000000	 0.052305
										CHANNELS 3 Zrotation Xrotation Yrotation
										JOINT RightHandIndex3
										{
											OFFSET	 0.009002	-0.000782	 0.042196
											CHANNELS 3 Zrotation Xrotation Yrotation
											End Site
											{
												OFFSET	 0.009002	-0.000782	 0.042196
											}
										}
									}
								}
							}
						}
					}
				}
			}
		}
	}
}
MOTION
Frames:    13
Frame Time: 0.03333334
-0.086534	 3.568146	-0.093238	-19.487560	-2.494522	-1.040710	 7.192322	 19.384170	-176.726800	-3.557343	-11.279400	 1.442527	 3.313817	 84.102430	-0.036828	-2.315465	 38.380880	-0.233048	 4.477122	-35.387940	-178.228100	 2.545509	-46.701610	 6.268457	 121.163000	 89.891650	-114.990600	 2.374514	 30.450240	 0.045243	-0.969278	 3.679713	 2.363739	-1.119516	-1.457137	 0.803753	-1.147152	-3.960526	-0.622761	-91.776180	 78.527420	-180.000000	 35.524950	 60.743580	-53.313990	-8.932104	-4.944300	-35.148780	 3.935417	-2.097678	-5.368394	-3.812334	 37.924440	-2.927599	-2.450526	 36.184240	 0.754587	-1.378229	 35.397820	-2.634230	 1.208054	 2.144002	-4.934407	 0.983525	-9.066799	 3.241600	 89.782120	 78.203870	 180.000000	-38.453000	 71.669350	 36.048230	-0.039402	-6.876251	 22.556770	-13.380800	-3.245611	 9.565940	 6.437017	 35.671460	-0.771858	 2.830251	 35.756010	-7.813440	-2.350882	 35.473990	 5.254307
-0.109690	 3.508098	-0.095523	-18.919440	-1.985322	-1.287171	 7.405168	 21.956930	-177.048800	-3.458426	-11.626030	 1.523001	 4.078337	 84.420650	-0.508995	-2.279176	 41.576570	-0.318727	 5.257030	-36.057940	-177.529200	-0.034532	-39.541190	 4.020343	 148.017800	 89.547590	-142.693100	 2.364272	 32.193150	 0.084613	-1.079383	 3.324408	 2.195231	-1.195750	-1.620394	 0.717572	-1.190366	-4.096352	-0.667273	-91.776180	 78.527400	-180.000000	 36.209850	 60.537980	-54.574500	-9.062251	-4.969915	-36.595850	 3.744162	-2.116313	-5.365138	-3.812334	 37.924440	-2.927599	-2.450526	 36.184240	 0.754587	-1.378229	 35.397820	-2.634230	 1.226626	 2.156389	-4.984782	 1.031437	-9.299689	 3.837354	 89.782100	 78.203870	-180.000000	-36.967820	 72.613180	 34.285590	 0.282783	-6.747024	 21.343790	-13.866300	-3.262965	 9.553761	 6.437017	 35.671460	-0.771858	 2.830251	 35.756010	-7.813440	-2.350882	 35.473990	 5.254307
-0.147764	 3.414290	-0.098858	-18.007890	-2.035768	-1.320522	 8.004280	 26.134140	-178.655100	-2.407451	-11.594490	 1.749174	 5.522835	 82.362980	-0.746245	-2.200792	 46.775980	-0.474909	 4.862673	-35.371550	-177.544300	 0.662544	-38.266310	 4.128003	 125.218700	 89.691630	-119.498400	 2.368895	 31.439650	 0.067453	-1.336220	 3.140131	 1.869308	-1.324744	-1.719469	 0.397045	-1.087271	-4.047907	-0.791975	-91.776180	 78.527400	 180.000000	 38.371740	 61.549100	-55.935310	-9.141099	-4.947141	-36.165540	 3.773810	-2.119460	-5.364511	-3.812334	 37.924440	-2.927599	-2.450526	 36.184240	 0.754587	-1.378229	 35.397820	-2.634230	 1.333577	 2.166340	-5.076421	 1.158580	-9.399577	 4.650939	 89.782100	 78.203870	-180.000000	-35.216290	 73.531360	 32.353730	 0.225084	-6.540342	 19.444570	-14.738340	-3.293607	 9.530437	 6.437017	 35.671460	-0.771858	 2.830251	 35.756010	-7.813440	-2.350882	 35.473990	 5.254307
-0.177389	 3.346180	-0.101179	-17.318340	-2.187470	-1.237833	 8.630037	 28.949900	 179.557500	-1.419599	-11.568780	 1.913874	 5.888056	 78.419400	-0.043645	-2.135721	 50.057830	-0.587643	 4.543494	-33.689490	-178.109000	 2.333687	-40.665090	 5.405784	 13.278730	 89.178850	-6.602161	 2.380094	 29.368600	 0.021339	-1.589269	 2.889239	 1.776883	-1.446722	-1.733128	 0.110972	-0.911376	-3.757068	-0.945274	-91.776180	 78.527400	-180.000000	 40.280720	 62.788670	-56.088950	-9.039977	-4.830475	-34.533650	 3.842899	-2.101031	-5.367826	-3.812334	 37.924440	-2.927599	-2.450526	 36.184240	 0.754587	-1.378229	 35.397820	-2.634230	 1.502833	 2.592096	-5.130025	 1.293875	-9.565525	 5.022112	 89.782120	 78.203870	 180.000000	-33.792620	 73.930630	 30.623760	 0.090485	-6.399158	 18.391940	-15.222610	-3.310431	 9.515924	 6.437017	 35.671460	-0.771858	 2.830251	 35.756010	-7.813440	-2.350882	 35.473990	 5.254307
-0.215335	 3.259327	-0.100922	-16.029790	-2.411670	-1.023294	 9.557218	 32.143740	 177.040900	-1.135486	-11.565740	 1.900249	 5.320940	 69.107580	 1.135229	-2.107852	 51.272430	-0.632893	 3.010793	-31.298930	-179.079100	 4.565200	-44.205730	 6.614624	 3.404406	 86.065570	 3.587070	 2.389773	 27.151900	-0.026541	-1.994916	 2.549531	 1.320004	-1.661380	-1.704726	-0.174828	-0.763717	-3.494606	-1.157170	-91.776180	 78.527400	-180.000000	 42.890080	 64.867230	-55.826280	-8.486345	-4.823510	-30.876360	 4.531299	-2.103104	-5.366623	-3.812334	 37.924440	-2.927599	-2.450526	 36.184240	 0.754587	-1.378229	 35.397820	-2.634230	 1.655274	 3.042818	-5.000854	 1.400568	-9.448757	 5.079229	 89.782110	 78.203930	 180.000000	-32.011290	 74.182270	 28.335640	 0.178351	-6.221274	 17.653020	-15.362280	-3.323651	 9.506569	 6.437017	 35.671460	-0.771858	 2.830251	 35.756010	-7.813440	-2.350882	 35.473990	 5.254307
-0.252961	 3.186870	-0.093187	-14.762930	-2.734155	-1.521344	 7.398639	 21.430030	 176.031000	-1.119662	-34.749950	 1.587734	 2.761704	 63.197720	 0.392961	-2.202416	 46.684570	-0.471941	 1.707348	-29.216800	-179.259400	 5.453223	-47.618060	 6.964964	 3.414334	 84.005440	 2.949425	 2.402059	 22.982480	-0.113212	-2.000871	 2.032135	 1.870864	-1.744362	-1.557324	-0.221106	-0.877149	-3.001596	-1.206036	-91.776180	 78.527380	-180.000000	 44.515140	 67.246020	-55.331410	-8.114683	-4.763747	-25.770600	 5.722334	-2.123132	-5.359998	-3.812334	 37.924440	-2.927599	-2.450526	 36.184240	 0.754587	-1.378229	 35.397820	-2.634230	 1.669756	 2.975201	-4.777227	 1.405192	-8.938276	 4.743069	 89.782120	 78.203870	 180.000000	-32.667390	 73.874670	 29.480190	-0.021743	-6.059583	 17.116360	-15.373130	-3.333991	 9.499492	 6.437017	 35.671460	-0.771858	 2.830251	 35.756010	-7.813440	-2.350882	 35.473990	 5.254307
-0.287079	 3.121108	-0.085601	-13.572130	-3.128834	 0.464529	 7.661860	 12.553140	 171.724400	-2.501131	-52.828490	-0.552360	 0.575146	 55.271140	 0.972851	-2.349324	 34.562170	-0.138392	 0.638320	-24.477010	 177.913100	 6.568557	-47.474590	 7.014683	 2.815556	 84.871570	 3.687494	 2.407550	 18.353380	-0.205597	-2.411623	 2.826303	-0.278882	-1.768958	-1.709207	-0.671173	-0.502617	-3.457424	-1.259153	-91.776180	 78.527400	-180.000000	 43.479160	 69.670000	-52.601230	-8.596921	-4.497421	-21.359210	 6.652740	-2.184686	-5.340095	-3.812334	 37.924440	-2.927599	-2.450526	 36.184240	 0.754587	-1.378229	 35.397820	-2.634230	 1.499760	 2.895195	-4.632161	 1.208542	-8.551171	 4.091167	 89.782120	 78.203870	 180.000000	-34.380470	 72.958410	 32.236770	-0.644107	-5.969975	 16.793760	-15.404330	-3.335036	 9.498570	 6.437017	 35.671460	-0.771858	 2.830251	 35.756010	-7.813440	-2.350882	 35.473990	 5.254307
-0.320220	 3.055229	-0.078327	-11.989780	-3.148149	 2.529762	 5.574837	 2.485726	 169.491100	-5.576945	-67.671940	-5.951737	-1.044031	 58.375050	 0.479290	-2.352355	 34.160510	-0.128849	 0.212766	-19.527610	 175.060500	 7.494571	-45.548820	 6.886631	 1.138593	 86.889510	 5.847484	 2.407684	 17.669210	-0.218998	-2.790388	 3.008975	-2.372410	-1.904783	-1.883533	-1.126341	-0.741125	-4.213088	-1.202090	-91.776180	 78.527400	-180.000000	 41.334670	 71.502370	-49.478580	-10.016010	-3.908828	-17.869750	 6.545915	-2.259566	-5.318558	-3.812334	 37.924440	-2.927599	-2.450526	 36.184240	 0.754587	-1.378229	 35.397820	-2.634230	 1.227397	 2.968655	-4.454678	 0.976222	-8.972751	 3.410783	 89.782090	 78.203830	-180.000000	-37.239510	 71.438960	 37.640250	-1.245349	-5.973597	 16.838860	-15.372110	-3.336291	 9.497734	 6.437017	 35.671460	-0.771858	 2.830251	 35.756010	-7.813440	-2.350882	 35.473990	 5.254307
-0.349136	 2.993449	-0.073838	-11.370290	-3.153393	 2.899711	 2.783445	-6.518678	 170.525500	-6.368416	-75.110000	-8.825298	-1.051210	 65.969490	 0.148288	-2.316292	 38.299260	-0.230943	 0.556742	-15.805760	 174.053400	 7.528268	-44.723870	 6.824558	-12.908040	 89.508620	 20.158910	 2.407629	 18.055260	-0.211450	-2.380529	 3.076889	-2.687276	-1.653071	-1.913773	-0.966839	-1.074374	-4.518890	-0.885145	-91.776180	 78.527400	 180.000000	 38.516940	 72.265890	-45.396230	-10.222700	-3.756495	-16.414940	 6.818854	-2.289026	-5.307858	-3.812334	 37.924440	-2.927599	-2.450526	 36.184240	 0.754587	-1.378229	 35.397820	-2.634230	 0.857621	 2.979373	-4.188221	 0.668418	-9.134585	 2.354740	 89.782120	 78.203870	 180.000000	-38.716350	 69.645180	 42.233270	-1.550933	-6.159711	 17.505690	-15.313350	-3.325379	 9.505203	 6.437017	 35.671460	-0.771858	 2.830251	 35.756010	-7.813440	-2.350882	 35.473990	 5.254307
-0.375049	 2.931127	-0.073387	-11.327810	-2.953224	 4.081456	 1.045790	-13.527340	 171.158700	-8.114779	-75.981930	-11.500830	-1.669668	 75.421010	-0.328782	-2.289186	 40.761970	-0.296252	 0.718307	-12.163060	 172.507300	 7.331720	-44.369140	 6.438300	-173.182300	 88.277050	-179.784300	 2.406408	 20.126630	-0.170588	-1.731161	 3.264932	-4.097747	-1.083661	-1.908530	-0.908164	-1.376955	-5.008778	-0.356944	-91.776180	 78.527400	 180.000000	 37.580960	 72.366500	-42.136420	-9.810108	-3.845251	-17.506110	 6.527420	-2.260668	-5.318479	-3.812334	 37.924440	-2.927599	-2.450526	 36.184240	 0.754587	-1.378229	 35.397820	-2.634230	 0.413981	 3.009429	-3.824399	 0.318335	-8.857630	 1.338943	 89.782090	 78.203830	-180.000000	-39.190490	 67.446820	 45.332490	-1.423327	-6.509578	 19.622790	-14.512540	-3.288953	 9.534606	 6.437017	 35.671460	-0.771858	 2.830251	 35.756010	-7.813440	-2.350882	 35.473990	 5.254307
-0.398197	 2.871851	-0.079008	-11.468470	-2.647283	 5.220093	-0.122107	-19.770050	 171.722400	-11.933400	-71.999960	-15.325870	-3.475023	 82.497060	-1.034461	-2.278930	 41.595870	-0.319270	 0.621166	-9.394022	 171.215500	 6.936625	-44.451860	 5.808342	-174.429100	 86.046850	-179.067300	 2.405330	 21.060620	-0.151974	-1.166543	 3.233557	-5.423294	-0.512395	-2.106330	-0.939182	-1.417405	-5.404517	 0.087153	-91.776180	 78.527400	 180.000000	 36.213440	 72.711940	-38.238070	-10.132000	-3.917959	-19.746040	 5.719627	-2.210743	-5.337302	-3.812334	 37.924440	-2.927599	-2.450526	 36.184240	 0.754587	-1.378229	 35.397820	-2.634230	 0.085413	 3.029908	-3.604800	 0.082100	-8.560395	 1.034053	 89.782140	 78.203830	 180.000000	-38.714760	 65.203020	 46.785100	-0.915493	-6.967428	 23.073930	-13.275540	-3.237213	 9.570790	 6.437017	 35.671460	-0.771858	 2.830251	 35.756010	-7.813440	-2.350882	 35.473990	 5.254307
-0.425758	 2.797146	-0.087261	-11.525340	-2.084173	 6.099607	-0.563981	-25.252480	 172.549700	-10.764290	-61.600380	-12.884270	-5.075493	 86.709010	-1.727234	-2.278890	 41.599190	-0.319360	 0.813200	-5.102079	 170.096600	 6.528393	-42.785750	 5.048811	-174.810400	 83.793600	-178.967900	 2.403477	 22.249850	-0.128060	-0.685690	 3.178710	-6.393159	 0.038803	-2.570820	-0.949603	-1.201866	-5.973381	 0.425613	-91.776180	 78.527400	-180.000000	 32.700460	 73.538510	-32.200080	-11.159450	-4.013477	-22.439490	 4.985461	-2.166501	-5.351475	-3.812334	 37.924440	-2.927599	-2.450526	 36.184240	 0.754587	-1.378229	 35.397820	-2.634230	-0.006880	 3.136637	-3.531659	 0.003732	-8.969413	 1.095981	 89.782120	 78.203870	 180.000000	-37.345090	 62.743650	 47.663540	 0.111121	-7.548556	 28.247140	-11.820340	-3.191806	 9.597915	 6.437017	 35.671460	-0.771858	 2.830251	 35.756010	-7.813440	-2.350882	 35.473990	 5.254307
-0.441312	 2.752035	-0.090826	-11.208050	-1.648062	 6.555101	-0.085975	-27.041020	 173.006500	-8.862726	-53.378810	-9.589679	-3.814814	 86.727390	-3.318578	-2.287736	 40.883080	-0.299558	 0.999531	-1.831385	 169.473500	 6.261242	-40.321460	 4.406966	-175.929300	 83.273190	-178.036900	 2.402553	 22.741220	-0.118110	-0.677143	 2.792193	-6.918252	 0.149131	-2.880996	-0.961524	-1.245261	-6.486360	 0.502173	-91.776180	 78.527400	-180.000000	 30.609030	 73.866850	-29.173840	-11.451110	-4.100665	-23.168920	 4.969535	-2.155598	-5.354026	-3.812334	 37.924440	-2.927599	-2.450526	 36.184240	 0.754587	-1.378229	 35.397820	-2.634230	 0.091758	 3.323967	-3.632320	 0.077310	-9.725707	 1.341320	 89.782120	 78.203870	 180.000000	-36.564940	 61.559350	 48.348630	 0.815487	-7.820603	 31.181100	-11.129060	-3.192875	 9.598192	 6.437017	 35.671460	-0.771858	 2.830251	 35.756010	-7.813440	-2.350882	 35.473990	 5.254307
